<mxfile host="Electron" modified="2024-07-31T00:50:36.090Z" agent="Mozilla/5.0 (Windows NT 10.0; Win64; x64) AppleWebKit/537.36 (KHTML, like Gecko) draw.io/24.5.3 Chrome/124.0.6367.207 Electron/30.0.6 Safari/537.36" etag="ZcopMwbfM18J4zZsOvOo" version="24.5.3" type="device">
  <diagram name="Page-1" id="yzI5z1mHdmiWYNU49iXh">
    <mxGraphModel dx="2140" dy="-479" grid="1" gridSize="10" guides="1" tooltips="1" connect="1" arrows="1" fold="1" page="1" pageScale="1" pageWidth="850" pageHeight="1100" math="0" shadow="0">
      <root>
        <mxCell id="0" />
        <mxCell id="1" parent="0" />
        <mxCell id="LsLJk3upz9a3kAg0ibDR-105" value="" style="rounded=0;whiteSpace=wrap;html=1;fillColor=#FFFFCC;" parent="1" vertex="1">
          <mxGeometry x="-840" y="1600" width="1640" height="1270" as="geometry" />
        </mxCell>
        <mxCell id="LsLJk3upz9a3kAg0ibDR-42" value="" style="rounded=0;whiteSpace=wrap;html=1;fillColor=#FFCCCC;" parent="1" vertex="1">
          <mxGeometry x="-840" y="3470" width="1640" height="410" as="geometry" />
        </mxCell>
        <mxCell id="LsLJk3upz9a3kAg0ibDR-43" value="&lt;p style=&quot;margin:0px;margin-top:4px;text-align:center;&quot;&gt;&lt;i&gt;&amp;lt;&amp;lt;Interface&amp;gt;&amp;gt;&lt;/i&gt;&lt;br&gt;&lt;b&gt;TransactionPersistenceService&lt;/b&gt;&lt;br&gt;&lt;/p&gt;&lt;hr size=&quot;1&quot; style=&quot;border-style:solid;&quot;&gt;&lt;p style=&quot;margin:0px;margin-left:4px;&quot;&gt;&lt;br&gt;&lt;/p&gt;&lt;hr size=&quot;1&quot; style=&quot;border-style:solid;&quot;&gt;&lt;p style=&quot;margin: 0px 0px 0px 4px;&quot;&gt;+ themGiaoDich(Transaction transaction): void&lt;/p&gt;&lt;p style=&quot;margin: 0px 0px 0px 4px;&quot;&gt;+ xoaGiaoDich(int maGiaoDich): void&lt;/p&gt;&lt;p style=&quot;margin: 0px 0px 0px 4px;&quot;&gt;+ suaGiaoDich(Transaction&amp;nbsp;&lt;span style=&quot;background-color: initial;&quot;&gt;transaction&lt;/span&gt;&lt;span style=&quot;background-color: initial;&quot;&gt;): void&lt;/span&gt;&lt;/p&gt;&lt;p style=&quot;margin: 0px 0px 0px 4px;&quot;&gt;+ timKiemGiaoDich(int maGiaoDich): List&amp;lt;Transaction&amp;gt;&lt;/p&gt;&lt;p style=&quot;margin: 0px 0px 0px 4px;&quot;&gt;+ tinhTBTTGDD(): Double&lt;/p&gt;&lt;p style=&quot;margin: 0px 0px 0px 4px;&quot;&gt;+ tinhTongSLTungLoai(Sring loaigd): int&lt;/p&gt;&lt;p style=&quot;margin: 0px 0px 0px 4px;&quot;&gt;+ xuatGiaoDichTheoThang(String month): List&amp;lt;Transaction&amp;gt;&lt;/p&gt;&lt;p style=&quot;margin: 0px 0px 0px 4px;&quot;&gt;+ loadTatCaGiaoDich(): List&amp;lt;Transaction&amp;gt;&lt;/p&gt;" style="verticalAlign=top;align=left;overflow=fill;html=1;whiteSpace=wrap;" parent="1" vertex="1">
          <mxGeometry x="120" y="3500" width="260" height="240" as="geometry" />
        </mxCell>
        <mxCell id="LsLJk3upz9a3kAg0ibDR-44" value="&lt;p style=&quot;margin:0px;margin-top:4px;text-align:center;&quot;&gt;&lt;b&gt;TransactionPersistenceServiceIplm&lt;/b&gt;&lt;br&gt;&lt;/p&gt;&lt;hr size=&quot;1&quot; style=&quot;border-style:solid;&quot;&gt;&lt;p style=&quot;margin:0px;margin-left:4px;&quot;&gt;- connection: Connection&amp;nbsp;&lt;/p&gt;&lt;hr size=&quot;1&quot; style=&quot;border-style:solid;&quot;&gt;&lt;p style=&quot;margin: 0px 0px 0px 4px;&quot;&gt;+ themGiaoDich(Transaction transaction): void&lt;/p&gt;&lt;p style=&quot;margin: 0px 0px 0px 4px;&quot;&gt;+ xoaGiaoDich(int maGiaoDich): void&lt;/p&gt;&lt;p style=&quot;margin: 0px 0px 0px 4px;&quot;&gt;+ suaGiaoDich(Transaction&amp;nbsp;&lt;span style=&quot;background-color: initial;&quot;&gt;transaction&lt;/span&gt;&lt;span style=&quot;background-color: initial;&quot;&gt;): void&lt;/span&gt;&lt;/p&gt;&lt;p style=&quot;margin: 0px 0px 0px 4px;&quot;&gt;+ timKiemGiaoDich(int maGiaoDich): List&amp;lt;Transaction&amp;gt;&lt;/p&gt;&lt;p style=&quot;margin: 0px 0px 0px 4px;&quot;&gt;+ tinhTBTTGDD(): Double&lt;/p&gt;&lt;p style=&quot;margin: 0px 0px 0px 4px;&quot;&gt;+ tinhTongSLTungLoai(Sring loaigd): int&lt;/p&gt;&lt;p style=&quot;margin: 0px 0px 0px 4px;&quot;&gt;+ xuatGiaoDichTheoThang(String month): List&amp;lt;Transaction&amp;gt;&lt;/p&gt;&lt;p style=&quot;margin: 0px 0px 0px 4px;&quot;&gt;&lt;span style=&quot;background-color: initial;&quot;&gt;+ loadTatCaGiaoDich(): List&amp;lt;Transaction&amp;gt;&lt;/span&gt;&lt;span style=&quot;background-color: initial;&quot;&gt;&amp;nbsp;&lt;/span&gt;&lt;br&gt;&lt;/p&gt;" style="verticalAlign=top;align=left;overflow=fill;html=1;whiteSpace=wrap;" parent="1" vertex="1">
          <mxGeometry x="-140" y="3610" width="220" height="250" as="geometry" />
        </mxCell>
        <mxCell id="LsLJk3upz9a3kAg0ibDR-45" value="&lt;p style=&quot;margin:0px;margin-top:4px;text-align:center;&quot;&gt;&lt;b&gt;Connection&lt;/b&gt;&lt;/p&gt;&lt;hr size=&quot;1&quot; style=&quot;border-style:solid;&quot;&gt;&lt;p style=&quot;margin:0px;margin-left:4px;&quot;&gt;- connection: static Connection&lt;/p&gt;&lt;hr size=&quot;1&quot; style=&quot;border-style:solid;&quot;&gt;&lt;p style=&quot;margin:0px;margin-left:4px;&quot;&gt;+ getConnection: static Connection&lt;/p&gt;" style="verticalAlign=top;align=left;overflow=fill;html=1;whiteSpace=wrap;" parent="1" vertex="1">
          <mxGeometry x="-380" y="3740" width="170" height="110" as="geometry" />
        </mxCell>
        <mxCell id="LsLJk3upz9a3kAg0ibDR-47" value="" style="endArrow=block;dashed=1;endFill=0;endSize=12;html=1;rounded=0;exitX=1;exitY=0;exitDx=0;exitDy=0;entryX=-0.008;entryY=0.438;entryDx=0;entryDy=0;entryPerimeter=0;" parent="1" source="LsLJk3upz9a3kAg0ibDR-44" target="LsLJk3upz9a3kAg0ibDR-43" edge="1">
          <mxGeometry width="160" relative="1" as="geometry">
            <mxPoint x="20" y="3874" as="sourcePoint" />
            <mxPoint x="21" y="3696" as="targetPoint" />
          </mxGeometry>
        </mxCell>
        <mxCell id="LsLJk3upz9a3kAg0ibDR-77" value="" style="rounded=0;whiteSpace=wrap;html=1;fillColor=#CCFFFF;" parent="1" vertex="1">
          <mxGeometry x="-840" y="2865" width="1640" height="610" as="geometry" />
        </mxCell>
        <mxCell id="LsLJk3upz9a3kAg0ibDR-86" value="&lt;p style=&quot;margin:0px;margin-top:4px;text-align:center;&quot;&gt;&lt;i&gt;&amp;lt;&amp;lt;Interface&amp;gt;&amp;gt;&lt;/i&gt;&lt;br&gt;&lt;b&gt;TransactionService&lt;/b&gt;&lt;/p&gt;&lt;hr size=&quot;1&quot; style=&quot;border-style:solid;&quot;&gt;&lt;p style=&quot;margin:0px;margin-left:4px;&quot;&gt;&lt;br&gt;&lt;/p&gt;&lt;hr size=&quot;1&quot; style=&quot;border-style:solid;&quot;&gt;&lt;p style=&quot;margin: 0px 0px 0px 4px;&quot;&gt;+ themGiaoDich(Transaction transaction): void&lt;/p&gt;&lt;p style=&quot;margin: 0px 0px 0px 4px;&quot;&gt;+ xoaGiaoDich(int maGiaoDich): void&lt;/p&gt;&lt;p style=&quot;margin: 0px 0px 0px 4px;&quot;&gt;+ suaGiaoDich(Transaction&amp;nbsp;&lt;span style=&quot;background-color: initial;&quot;&gt;transaction&lt;/span&gt;&lt;span style=&quot;background-color: initial;&quot;&gt;): void&lt;/span&gt;&lt;/p&gt;&lt;p style=&quot;margin: 0px 0px 0px 4px;&quot;&gt;+ timKiemGiaoDich(int maGiaoDich): List&amp;lt;Transaction&amp;gt;&lt;/p&gt;&lt;p style=&quot;margin: 0px 0px 0px 4px;&quot;&gt;+ tinhTBTTGDD(): Double&lt;/p&gt;&lt;p style=&quot;margin: 0px 0px 0px 4px;&quot;&gt;+ tinhTongSLTungLoai(Sring loaigd): int&lt;/p&gt;&lt;p style=&quot;margin: 0px 0px 0px 4px;&quot;&gt;+ xuatGiaoDichTheoThang(String month): List&amp;lt;Transaction&amp;gt;&lt;/p&gt;&lt;p style=&quot;margin: 0px 0px 0px 4px;&quot;&gt;+ loadTatCaGiaoDich(): List&amp;lt;Transaction&amp;gt;&lt;/p&gt;" style="verticalAlign=top;align=left;overflow=fill;html=1;whiteSpace=wrap;" parent="1" vertex="1">
          <mxGeometry x="-110" y="2900" width="260" height="230" as="geometry" />
        </mxCell>
        <mxCell id="LsLJk3upz9a3kAg0ibDR-87" value="&lt;p style=&quot;margin:0px;margin-top:4px;text-align:center;&quot;&gt;&lt;b&gt;TransactionServiceIplm&lt;/b&gt;&lt;/p&gt;&lt;hr size=&quot;1&quot; style=&quot;border-style:solid;&quot;&gt;&lt;p style=&quot;margin:0px;margin-left:4px;&quot;&gt;- transactionPersistenceService: TransactionPersistenceService&lt;/p&gt;&lt;hr size=&quot;1&quot; style=&quot;border-style:solid;&quot;&gt;&lt;p style=&quot;margin: 0px 0px 0px 4px;&quot;&gt;+ themGiaoDich(Transaction transaction): void&lt;/p&gt;&lt;p style=&quot;margin: 0px 0px 0px 4px;&quot;&gt;+ xoaGiaoDich(int maGiaoDich): void&lt;/p&gt;&lt;p style=&quot;margin: 0px 0px 0px 4px;&quot;&gt;+ suaGiaoDich(Transaction&amp;nbsp;&lt;span style=&quot;background-color: initial;&quot;&gt;transaction&lt;/span&gt;&lt;span style=&quot;background-color: initial;&quot;&gt;): void&lt;/span&gt;&lt;/p&gt;&lt;p style=&quot;margin: 0px 0px 0px 4px;&quot;&gt;+ timKiemGiaoDich(int maGiaoDich): List&amp;lt;Transaction&amp;gt;&lt;/p&gt;&lt;p style=&quot;margin: 0px 0px 0px 4px;&quot;&gt;+ tinhTBTTGDD(): Double&lt;/p&gt;&lt;p style=&quot;margin: 0px 0px 0px 4px;&quot;&gt;+ tinhTongSLTungLoai(Sring loaigd): int&lt;/p&gt;&lt;p style=&quot;margin: 0px 0px 0px 4px;&quot;&gt;+ xuatGiaoDichTheoThang(String month): List&amp;lt;Transaction&amp;gt;&lt;/p&gt;&lt;p style=&quot;margin: 0px 0px 0px 4px;&quot;&gt;+ loadTatCaGiaoDich(): List&amp;lt;Transaction&amp;gt;&lt;/p&gt;" style="verticalAlign=top;align=left;overflow=fill;html=1;whiteSpace=wrap;" parent="1" vertex="1">
          <mxGeometry x="-70" y="3190" width="260" height="230" as="geometry" />
        </mxCell>
        <mxCell id="LsLJk3upz9a3kAg0ibDR-88" value="&lt;p style=&quot;margin:0px;margin-top:4px;text-align:center;&quot;&gt;&lt;b&gt;Publisher&lt;/b&gt;&lt;/p&gt;&lt;hr size=&quot;1&quot; style=&quot;border-style:solid;&quot;&gt;&lt;p style=&quot;margin:0px;margin-left:4px;&quot;&gt;- subcribers: List&amp;lt;Subcriber&amp;gt;&lt;br&gt;&lt;/p&gt;&lt;hr size=&quot;1&quot; style=&quot;border-style:solid;&quot;&gt;&lt;p style=&quot;margin: 0px 0px 0px 4px;&quot;&gt;+ subcribe(Subcriber): void&lt;/p&gt;&lt;p style=&quot;margin: 0px 0px 0px 4px;&quot;&gt;+ unSubscribe(Subcriber): void&lt;/p&gt;&lt;p style=&quot;margin: 0px 0px 0px 4px;&quot;&gt;+ notifySubcribers(): void&lt;/p&gt;" style="verticalAlign=top;align=left;overflow=fill;html=1;whiteSpace=wrap;" parent="1" vertex="1">
          <mxGeometry x="210" y="3030" width="180" height="130" as="geometry" />
        </mxCell>
        <mxCell id="LsLJk3upz9a3kAg0ibDR-89" value="&lt;p style=&quot;margin:0px;margin-top:4px;text-align:center;&quot;&gt;&lt;i&gt;&amp;lt;&amp;lt;Interface&amp;gt;&amp;gt;&lt;/i&gt;&lt;br&gt;&lt;b&gt;Subcriber&lt;/b&gt;&lt;/p&gt;&lt;hr size=&quot;1&quot; style=&quot;border-style:solid;&quot;&gt;&lt;p style=&quot;margin:0px;margin-left:4px;&quot;&gt;&amp;nbsp;&amp;nbsp;&lt;/p&gt;&lt;hr size=&quot;1&quot; style=&quot;border-style:solid;&quot;&gt;&lt;p style=&quot;margin:0px;margin-left:4px;&quot;&gt;+&lt;i&gt; update(): void&lt;/i&gt;&lt;br&gt;&lt;br&gt;&lt;/p&gt;" style="verticalAlign=top;align=left;overflow=fill;html=1;whiteSpace=wrap;" parent="1" vertex="1">
          <mxGeometry x="340" y="2900" width="130" height="100" as="geometry" />
        </mxCell>
        <mxCell id="LsLJk3upz9a3kAg0ibDR-92" value="Extends" style="endArrow=block;endSize=16;endFill=0;html=1;rounded=0;exitX=1;exitY=0;exitDx=0;exitDy=0;entryX=0;entryY=1;entryDx=0;entryDy=0;" parent="1" source="LsLJk3upz9a3kAg0ibDR-87" target="LsLJk3upz9a3kAg0ibDR-88" edge="1">
          <mxGeometry x="0.0089" width="160" relative="1" as="geometry">
            <mxPoint x="332" y="3427" as="sourcePoint" />
            <mxPoint x="470" y="3410" as="targetPoint" />
            <mxPoint as="offset" />
          </mxGeometry>
        </mxCell>
        <mxCell id="LsLJk3upz9a3kAg0ibDR-93" value="Use" style="endArrow=open;endSize=12;dashed=1;html=1;rounded=0;exitX=0.75;exitY=0;exitDx=0;exitDy=0;entryX=0.198;entryY=1.004;entryDx=0;entryDy=0;entryPerimeter=0;" parent="1" source="LsLJk3upz9a3kAg0ibDR-88" target="LsLJk3upz9a3kAg0ibDR-89" edge="1">
          <mxGeometry x="-0.0082" width="160" relative="1" as="geometry">
            <mxPoint x="460" y="3150" as="sourcePoint" />
            <mxPoint x="620" y="3150" as="targetPoint" />
            <mxPoint as="offset" />
          </mxGeometry>
        </mxCell>
        <mxCell id="LsLJk3upz9a3kAg0ibDR-94" value="" style="endArrow=block;dashed=1;endFill=0;endSize=12;html=1;rounded=0;exitX=0.5;exitY=0;exitDx=0;exitDy=0;entryX=0.682;entryY=1.011;entryDx=0;entryDy=0;entryPerimeter=0;" parent="1" source="LsLJk3upz9a3kAg0ibDR-87" target="LsLJk3upz9a3kAg0ibDR-86" edge="1">
          <mxGeometry width="160" relative="1" as="geometry">
            <mxPoint x="210" y="3010" as="sourcePoint" />
            <mxPoint x="215" y="3300" as="targetPoint" />
          </mxGeometry>
        </mxCell>
        <mxCell id="LsLJk3upz9a3kAg0ibDR-95" value="Use" style="endArrow=open;endSize=12;dashed=1;html=1;rounded=0;exitX=-0.003;exitY=0.64;exitDx=0;exitDy=0;entryX=0.991;entryY=0.212;entryDx=0;entryDy=0;exitPerimeter=0;entryPerimeter=0;" parent="1" source="LsLJk3upz9a3kAg0ibDR-86" target="LsLJk3upz9a3kAg0ibDR-133" edge="1">
          <mxGeometry width="160" relative="1" as="geometry">
            <mxPoint x="-170" y="3075" as="sourcePoint" />
            <mxPoint x="-190" y="3070" as="targetPoint" />
          </mxGeometry>
        </mxCell>
        <mxCell id="LsLJk3upz9a3kAg0ibDR-104" value="" style="endArrow=open;endFill=1;endSize=12;html=1;rounded=0;entryX=0;entryY=0;entryDx=0;entryDy=0;exitX=0.75;exitY=1;exitDx=0;exitDy=0;" parent="1" source="LsLJk3upz9a3kAg0ibDR-87" target="LsLJk3upz9a3kAg0ibDR-43" edge="1">
          <mxGeometry width="160" relative="1" as="geometry">
            <mxPoint x="140" y="3460" as="sourcePoint" />
            <mxPoint x="170" y="3540" as="targetPoint" />
          </mxGeometry>
        </mxCell>
        <mxCell id="LsLJk3upz9a3kAg0ibDR-106" value="&lt;p style=&quot;margin:0px;margin-top:4px;text-align:center;&quot;&gt;&lt;b&gt;TransactionManagementUI&lt;/b&gt;&lt;/p&gt;&lt;hr size=&quot;1&quot; style=&quot;border-style:solid;&quot;&gt;&lt;p style=&quot;margin:0px;margin-left:4px;&quot;&gt;&lt;span style=&quot;background-color: initial;&quot;&gt;- paneRemote: JPanel&lt;/span&gt;&lt;/p&gt;&lt;p style=&quot;margin:0px;margin-left:4px;&quot;&gt;&lt;span style=&quot;background-color: initial;&quot;&gt;- txtNgayGiaoDichRemote: JTextField&lt;/span&gt;&lt;/p&gt;&lt;p style=&quot;margin:0px;margin-left:4px;&quot;&gt;&lt;span style=&quot;background-color: initial;&quot;&gt;- txtDonGiaRemote:&amp;nbsp;&lt;/span&gt;&lt;span style=&quot;background-color: initial;&quot;&gt;JTextField&lt;/span&gt;&lt;/p&gt;&lt;p style=&quot;margin:0px;margin-left:4px;&quot;&gt;&lt;span style=&quot;background-color: initial;&quot;&gt;- txtDiaChiRemote:&amp;nbsp;&lt;/span&gt;&lt;span style=&quot;background-color: initial;&quot;&gt;JTextField&lt;/span&gt;&lt;/p&gt;&lt;p style=&quot;margin:0px;margin-left:4px;&quot;&gt;&lt;span style=&quot;background-color: initial;&quot;&gt;- txtDienTich:&amp;nbsp;&lt;/span&gt;&lt;span style=&quot;background-color: initial;&quot;&gt;JTextField&lt;/span&gt;&lt;/p&gt;&lt;p style=&quot;margin:0px;margin-left:4px;&quot;&gt;&lt;span style=&quot;background-color: initial;&quot;&gt;- tableRemote: JTable&amp;nbsp;&lt;/span&gt;&lt;/p&gt;&lt;p style=&quot;margin:0px;margin-left:4px;&quot;&gt;&lt;span style=&quot;background-color: initial;&quot;&gt;- CBloaiGDRemote: JComboBox&lt;/span&gt;&lt;/p&gt;&lt;p style=&quot;margin:0px;margin-left:4px;&quot;&gt;&lt;span style=&quot;background-color: initial;&quot;&gt;- CBloaiNhaRemote:&amp;nbsp;&lt;/span&gt;&lt;span style=&quot;background-color: initial;&quot;&gt;JComboBox&lt;/span&gt;&lt;/p&gt;&lt;p style=&quot;margin:0px;margin-left:4px;&quot;&gt;&lt;span style=&quot;background-color: initial;&quot;&gt;- CBloaiDatRemote:&amp;nbsp;&lt;/span&gt;&lt;span style=&quot;background-color: initial;&quot;&gt;JComboBox&lt;/span&gt;&lt;/p&gt;&lt;p style=&quot;margin:0px;margin-left:4px;&quot;&gt;&lt;span style=&quot;background-color: initial;&quot;&gt;- bdsMenuBarRemote:&amp;nbsp;&lt;/span&gt;&lt;span style=&quot;background-color: initial;&quot;&gt;JMenuBar&lt;/span&gt;&lt;/p&gt;&lt;p style=&quot;margin:0px;margin-left:4px;&quot;&gt;&lt;span style=&quot;background-color: initial;&quot;&gt;- chucNangMenuRemote: JMenu&lt;/span&gt;&lt;/p&gt;&lt;p style=&quot;margin:0px;margin-left:4px;&quot;&gt;&lt;span style=&quot;background-color: initial;&quot;&gt;- troGiupMenuRemote:&amp;nbsp;&lt;/span&gt;JMenu&lt;span style=&quot;background-color: initial;&quot;&gt;&lt;br&gt;- transactionControllerRemote: TransactionController&lt;/span&gt;&lt;br&gt;&lt;/p&gt;&lt;p style=&quot;margin:0px;margin-left:4px;&quot;&gt;- transactionServiceRemote: TransactionService&lt;/p&gt;&lt;hr size=&quot;1&quot; style=&quot;border-style:solid;&quot;&gt;&lt;p style=&quot;margin:0px;margin-left:4px;&quot;&gt;+ TransactionManagementUI(&lt;/p&gt;&lt;p style=&quot;margin:0px;margin-left:4px;&quot;&gt;TransactionController&lt;/p&gt;&lt;p style=&quot;margin:0px;margin-left:4px;&quot;&gt;transactionControllerRemote, TransactionService transactionServiceRemote )&lt;/p&gt;&lt;p style=&quot;margin:0px;margin-left:4px;&quot;&gt;+ clearFieldsAndComboBoxses(): void&lt;/p&gt;&lt;p style=&quot;margin:0px;margin-left:4px;&quot;&gt;+ setTransactionController(TransactionController transactionController)&lt;/p&gt;&lt;p style=&quot;margin:0px;margin-left:4px;&quot;&gt;+ loadTableData1(): void&amp;nbsp;&lt;/p&gt;&lt;p style=&quot;margin:0px;margin-left:4px;&quot;&gt;+loadTableDatatoID(int id): void&lt;/p&gt;&lt;p style=&quot;margin:0px;margin-left:4px;&quot;&gt;+ loadTableDatatoMonth(String x): void&lt;/p&gt;&lt;p style=&quot;margin:0px;margin-left:4px;&quot;&gt;+ loadTableData(): void&lt;/p&gt;&lt;p style=&quot;margin:0px;margin-left:4px;&quot;&gt;+ exportTransaction(): void&lt;/p&gt;&lt;p style=&quot;margin:0px;margin-left:4px;&quot;&gt;+ convertDate( String dateStr): java.sql.Date&lt;/p&gt;&lt;p style=&quot;margin:0px;margin-left:4px;&quot;&gt;+ getSelectedRow(): int&lt;/p&gt;&lt;p style=&quot;margin:0px;margin-left:4px;&quot;&gt;+ displayAverage(double average): void&amp;nbsp;&lt;/p&gt;&lt;p style=&quot;margin:0px;margin-left:4px;&quot;&gt;+ displayTotal(double total): void&lt;/p&gt;&lt;p style=&quot;margin:0px;margin-left:4px;&quot;&gt;+ getTransactionIdToDelete(): int&lt;/p&gt;&lt;p style=&quot;margin:0px;margin-left:4px;&quot;&gt;+ getNewTransaction(): Transaction&amp;nbsp;&lt;/p&gt;&lt;p style=&quot;margin:0px;margin-left:4px;&quot;&gt;+ getUpdatedTransaction(): Transaction&lt;/p&gt;&lt;p style=&quot;margin:0px;margin-left:4px;&quot;&gt;+ getSearchKeywordid(): String&lt;/p&gt;&lt;p style=&quot;margin:0px;margin-left:4px;&quot;&gt;+ getSeachKeyword(): String&lt;/p&gt;&lt;p style=&quot;margin:0px;margin-left:4px;&quot;&gt;+ loai(): String&lt;/p&gt;&lt;p style=&quot;margin:0px;margin-left:4px;&quot;&gt;+ comboBoxLoaiGD(): void&lt;/p&gt;&lt;p style=&quot;margin:0px;margin-left:4px;&quot;&gt;+ loadtextField(): void&amp;nbsp;&lt;/p&gt;&lt;p style=&quot;margin:0px;margin-left:4px;&quot;&gt;+&amp;nbsp;&lt;span style=&quot;background-color: initial;&quot;&gt;loadtextField()1: void&amp;nbsp;&lt;/span&gt;&lt;/p&gt;&lt;p style=&quot;margin:0px;margin-left:4px;&quot;&gt;&lt;span style=&quot;background-color: initial;&quot;&gt;+&amp;nbsp;&lt;/span&gt;&lt;span style=&quot;background-color: initial;&quot;&gt;getTextField():&amp;nbsp;&lt;/span&gt;&lt;span style=&quot;background-color: initial;&quot;&gt;JTextField&lt;/span&gt;&lt;span style=&quot;background-color: initial;&quot;&gt;&amp;nbsp;&lt;/span&gt;&lt;/p&gt;&lt;p style=&quot;margin:0px;margin-left:4px;&quot;&gt;&lt;span style=&quot;background-color: initial;&quot;&gt;+&amp;nbsp;&lt;/span&gt;&lt;span style=&quot;background-color: initial;&quot;&gt;setTextField(JTextField textField): void&amp;nbsp;&lt;/span&gt;&lt;/p&gt;&lt;p style=&quot;margin:0px;margin-left:4px;&quot;&gt;&lt;span style=&quot;background-color: initial;&quot;&gt;+&amp;nbsp;&lt;/span&gt;&lt;span style=&quot;background-color: initial;&quot;&gt;getTextField_1():&amp;nbsp;&lt;/span&gt;&lt;span style=&quot;background-color: initial;&quot;&gt;JTextField&lt;/span&gt;&lt;span style=&quot;background-color: initial;&quot;&gt;&amp;nbsp;&lt;/span&gt;&lt;/p&gt;&lt;p style=&quot;margin:0px;margin-left:4px;&quot;&gt;&lt;span style=&quot;background-color: initial;&quot;&gt;+&amp;nbsp;&lt;/span&gt;&lt;span style=&quot;background-color: initial;&quot;&gt;setTextField_1(JTextField textField_1): void&lt;/span&gt;&lt;/p&gt;&lt;p style=&quot;margin:0px;margin-left:4px;&quot;&gt;&lt;span style=&quot;background-color: initial;&quot;&gt;+&amp;nbsp;&lt;/span&gt;&lt;span style=&quot;background-color: initial;&quot;&gt;getTextField_2():&amp;nbsp;&lt;/span&gt;&lt;span style=&quot;background-color: initial;&quot;&gt;JTextField&lt;/span&gt;&lt;span style=&quot;background-color: initial;&quot;&gt;&amp;nbsp;&lt;/span&gt;&lt;/p&gt;&lt;p style=&quot;margin:0px;margin-left:4px;&quot;&gt;&lt;span style=&quot;background-color: initial;&quot;&gt;+&amp;nbsp;&lt;/span&gt;&lt;span style=&quot;background-color: initial;&quot;&gt;setTextField_2(JTextField textField_2): void&lt;/span&gt;&lt;/p&gt;&lt;p style=&quot;margin:0px;margin-left:4px;&quot;&gt;&lt;span style=&quot;background-color: initial;&quot;&gt;+&amp;nbsp;&lt;/span&gt;&lt;span style=&quot;background-color: initial;&quot;&gt;getTxtDienTichRemote():&amp;nbsp;&lt;/span&gt;&lt;span style=&quot;background-color: initial;&quot;&gt;JTextField&lt;/span&gt;&lt;span style=&quot;background-color: initial;&quot;&gt;&amp;nbsp;&lt;/span&gt;&lt;/p&gt;&lt;p style=&quot;margin:0px;margin-left:4px;&quot;&gt;&lt;span style=&quot;background-color: initial;&quot;&gt;+&amp;nbsp;&lt;/span&gt;&lt;span style=&quot;background-color: initial;&quot;&gt;setTxtDienTichRemote(JTextField txtDienTichRemote): void&lt;/span&gt;&lt;/p&gt;&lt;p style=&quot;margin:0px;margin-left:4px;&quot;&gt;&lt;span style=&quot;background-color: initial;&quot;&gt;+&amp;nbsp;&lt;/span&gt;&lt;span style=&quot;background-color: initial;&quot;&gt;getTxtDiaChiRemote():&amp;nbsp;&lt;/span&gt;&lt;span style=&quot;background-color: initial;&quot;&gt;JTextField&lt;/span&gt;&lt;span style=&quot;background-color: initial;&quot;&gt;&amp;nbsp;&lt;/span&gt;&lt;/p&gt;&lt;p style=&quot;margin:0px;margin-left:4px;&quot;&gt;&lt;span style=&quot;background-color: initial;&quot;&gt;+&amp;nbsp;&lt;/span&gt;&lt;span style=&quot;background-color: initial;&quot;&gt;setTxtDiaChiRemote(JTextField txtDiaChiRemote): void&amp;nbsp;&lt;/span&gt;&lt;/p&gt;&lt;p style=&quot;margin:0px;margin-left:4px;&quot;&gt;&lt;span style=&quot;background-color: initial;&quot;&gt;+&amp;nbsp;&lt;/span&gt;&lt;span style=&quot;background-color: initial;&quot;&gt;getTxtDonGiaRemote():&amp;nbsp;&lt;/span&gt;&lt;span style=&quot;background-color: initial;&quot;&gt;JTextField&lt;/span&gt;&lt;span style=&quot;background-color: initial;&quot;&gt;&amp;nbsp;&lt;/span&gt;&lt;/p&gt;&lt;p style=&quot;margin:0px;margin-left:4px;&quot;&gt;&lt;span style=&quot;background-color: initial;&quot;&gt;+&amp;nbsp;&lt;/span&gt;&lt;span style=&quot;background-color: initial;&quot;&gt;setTxtDonGiaRemote(JTextField txtDonGiaRemote): void&lt;/span&gt;&lt;/p&gt;&lt;p style=&quot;margin:0px;margin-left:4px;&quot;&gt;&lt;span style=&quot;background-color: initial;&quot;&gt;+&amp;nbsp;&lt;/span&gt;&lt;span style=&quot;background-color: initial;&quot;&gt;getTxtNgayGiaoDichRemote():&amp;nbsp;&lt;/span&gt;&lt;span style=&quot;background-color: initial;&quot;&gt;JTextField&lt;/span&gt;&lt;span style=&quot;background-color: initial;&quot;&gt;&amp;nbsp;&lt;/span&gt;&lt;/p&gt;&lt;p style=&quot;margin:0px;margin-left:4px;&quot;&gt;&lt;span style=&quot;background-color: initial;&quot;&gt;+&amp;nbsp;&lt;/span&gt;&lt;span style=&quot;background-color: initial;&quot;&gt;setTxtNgayGiaoDichRemote(JTextField txtNgayGiaoDichRemote): void&lt;/span&gt;&lt;/p&gt;&lt;p style=&quot;margin:0px;margin-left:4px;&quot;&gt;&lt;span style=&quot;background-color: initial;&quot;&gt;+&amp;nbsp;&lt;/span&gt;&lt;span style=&quot;background-color: initial;&quot;&gt;getBtnAdd(),&amp;nbsp;&lt;/span&gt;&lt;span style=&quot;background-color: initial;&quot;&gt;getBtnDelete(),&amp;nbsp;&lt;/span&gt;&lt;span style=&quot;background-color: initial;&quot;&gt;getBtnEdit(),&amp;nbsp;&lt;/span&gt;&lt;span style=&quot;background-color: initial;&quot;&gt;getBtnExport(),&amp;nbsp;&lt;/span&gt;&lt;span style=&quot;background-color: initial;&quot;&gt;getBtnSearch(),&lt;/span&gt;&lt;/p&gt;&lt;p style=&quot;margin:0px;margin-left:4px;&quot;&gt;&lt;span style=&quot;background-color: initial;&quot;&gt;getBtnTotal(),&amp;nbsp;&lt;/span&gt;&lt;span style=&quot;background-color: initial;&quot;&gt;getBtnAverage()&lt;/span&gt;&lt;span style=&quot;background-color: initial;&quot;&gt;:&amp;nbsp;&lt;/span&gt;&lt;span style=&quot;background-color: initial;&quot;&gt;JButton&lt;/span&gt;&lt;span style=&quot;background-color: initial;&quot;&gt;&amp;nbsp;&lt;/span&gt;&lt;/p&gt;&lt;p style=&quot;margin:0px;margin-left:4px;&quot;&gt;&lt;span style=&quot;background-color: initial;&quot;&gt;+ update(): void&lt;/span&gt;&lt;/p&gt;" style="verticalAlign=top;align=left;overflow=fill;html=1;whiteSpace=wrap;" parent="1" vertex="1">
          <mxGeometry x="160" y="1960" width="440" height="840" as="geometry" />
        </mxCell>
        <mxCell id="LsLJk3upz9a3kAg0ibDR-107" value="&lt;p style=&quot;margin: 4px 0px 0px; text-align: center;&quot;&gt;&lt;span style=&quot;background-color: initial; text-align: left;&quot;&gt;&lt;b&gt;TransactionController&lt;/b&gt;&lt;/span&gt;&lt;/p&gt;&lt;div&gt;&lt;span style=&quot;background-color: initial; text-align: left;&quot;&gt;&lt;br&gt;&lt;/span&gt;&lt;/div&gt;&lt;hr size=&quot;1&quot; style=&quot;border-style:solid;&quot;&gt;&lt;p style=&quot;margin:0px;margin-left:4px;&quot;&gt;&lt;span style=&quot;background-color: initial;&quot;&gt;- instance: TransactionController&lt;br&gt;- transactionManagementUIRemote:&lt;/span&gt;&lt;/p&gt;&lt;p style=&quot;margin:0px;margin-left:4px;&quot;&gt;TransactionManagementUI&lt;/p&gt;&lt;p style=&quot;margin:0px;margin-left:4px;&quot;&gt;- transactionServiceRemote: TransactionService&lt;/p&gt;&lt;hr size=&quot;1&quot; style=&quot;border-style:solid;&quot;&gt;&lt;p style=&quot;margin:0px;margin-left:4px;&quot;&gt;&lt;span style=&quot;background-color: initial;&quot;&gt;+ TransactionController(TransactionManagementUI transactionManagementUIRemote, TransactionService transactionServiceRemote)&lt;br&gt;+ getInstance(&lt;span style=&quot;white-space: pre;&quot;&gt;&#x9;&lt;/span&gt;TransactionManagement transactionManagementRemote): TransactionController&amp;nbsp;&lt;/span&gt;&lt;/p&gt;&lt;p style=&quot;margin:0px;margin-left:4px;&quot;&gt;&lt;span style=&quot;background-color: initial;&quot;&gt;+ makeTransactionController: static TransactionController&lt;/span&gt;&lt;/p&gt;&lt;p style=&quot;margin:0px;margin-left:4px;&quot;&gt;&lt;span style=&quot;background-color: initial;&quot;&gt;+ actionPerform(ActionEvent e): void&amp;nbsp;&lt;/span&gt;&lt;br&gt;&lt;/p&gt;&lt;p style=&quot;margin:0px;margin-left:4px;&quot;&gt;&lt;span style=&quot;background-color: initial;&quot;&gt;+ execute2(TransactionCommand): void&amp;nbsp;&lt;/span&gt;&lt;/p&gt;&lt;div&gt;&lt;span style=&quot;background-color: initial;&quot;&gt;&lt;br&gt;&lt;/span&gt;&lt;/div&gt;" style="verticalAlign=top;align=left;overflow=fill;html=1;whiteSpace=wrap;" parent="1" vertex="1">
          <mxGeometry x="-345" y="2100" width="345" height="235" as="geometry" />
        </mxCell>
        <mxCell id="LsLJk3upz9a3kAg0ibDR-108" value="&lt;p style=&quot;margin:0px;margin-top:4px;text-align:center;&quot;&gt;&lt;b&gt;TransactionCommand&lt;/b&gt;&lt;/p&gt;&lt;hr size=&quot;1&quot; style=&quot;border-style:solid;&quot;&gt;&lt;p style=&quot;margin:0px;margin-left:4px;&quot;&gt;- transactionServiceRemote:&lt;/p&gt;&lt;p style=&quot;margin:0px;margin-left:4px;&quot;&gt;TransactionService&lt;/p&gt;&lt;hr size=&quot;1&quot; style=&quot;border-style:solid;&quot;&gt;&lt;p style=&quot;margin:0px;margin-left:4px;&quot;&gt;+ TransactionCommand(Transaction transactionRemote )&lt;br&gt;+ execute(): void&amp;nbsp;&lt;/p&gt;" style="verticalAlign=top;align=left;overflow=fill;html=1;whiteSpace=wrap;" parent="1" vertex="1">
          <mxGeometry x="-382.5" y="2470" width="230" height="150" as="geometry" />
        </mxCell>
        <mxCell id="LsLJk3upz9a3kAg0ibDR-109" value="&lt;p style=&quot;margin:0px;margin-top:4px;text-align:center;&quot;&gt;&lt;b&gt;ThemGiaoDichCommand&lt;/b&gt;&lt;/p&gt;&lt;hr size=&quot;1&quot; style=&quot;border-style:solid;&quot;&gt;&lt;p style=&quot;margin:0px;margin-left:4px;&quot;&gt;- transactionRemote: Transaction&lt;br&gt;&lt;/p&gt;&lt;hr size=&quot;1&quot; style=&quot;border-style:solid;&quot;&gt;&lt;p style=&quot;margin:0px;margin-left:4px;&quot;&gt;+ ThemGiaoDichCommand(&lt;/p&gt;&lt;p style=&quot;margin:0px;margin-left:4px;&quot;&gt;&lt;span style=&quot;background-color: initial;&quot;&gt;Transaction transactionRemote&lt;/span&gt;&lt;span style=&quot;background-color: initial;&quot;&gt;)&lt;/span&gt;&lt;/p&gt;&lt;p style=&quot;margin:0px;margin-left:4px;&quot;&gt;+ execute(): void&amp;nbsp;&lt;br&gt;&lt;/p&gt;" style="verticalAlign=top;align=left;overflow=fill;html=1;whiteSpace=wrap;" parent="1" vertex="1">
          <mxGeometry x="-800" y="2695" width="180" height="125" as="geometry" />
        </mxCell>
        <mxCell id="LsLJk3upz9a3kAg0ibDR-110" value="&lt;p style=&quot;margin:0px;margin-top:4px;text-align:center;&quot;&gt;&lt;b&gt;XoaGiaoDichCommand&lt;/b&gt;&lt;/p&gt;&lt;hr size=&quot;1&quot; style=&quot;border-style:solid;&quot;&gt;&lt;p style=&quot;margin:0px;margin-left:4px;&quot;&gt;- maGiaoDich: int&lt;/p&gt;&lt;hr size=&quot;1&quot; style=&quot;border-style:solid;&quot;&gt;&lt;p style=&quot;margin:0px;margin-left:4px;&quot;&gt;+ XoaGiaoDichCommand(&lt;/p&gt;&lt;p style=&quot;margin:0px;margin-left:4px;&quot;&gt;&lt;span style=&quot;background-color: initial;&quot;&gt;Transaction transactionRemote, int maGiaoDich&lt;/span&gt;&lt;span style=&quot;background-color: initial;&quot;&gt;)&lt;/span&gt;&lt;/p&gt;&lt;p style=&quot;margin:0px;margin-left:4px;&quot;&gt;+ execute(): void&amp;nbsp;&lt;/p&gt;" style="verticalAlign=top;align=left;overflow=fill;html=1;whiteSpace=wrap;" parent="1" vertex="1">
          <mxGeometry x="-810" y="2560" width="185" height="120" as="geometry" />
        </mxCell>
        <mxCell id="LsLJk3upz9a3kAg0ibDR-111" value="&lt;p style=&quot;margin:0px;margin-top:4px;text-align:center;&quot;&gt;&lt;b&gt;SuaGiaoDichCommand&lt;/b&gt;&lt;/p&gt;&lt;hr size=&quot;1&quot; style=&quot;border-style:solid;&quot;&gt;&lt;p style=&quot;margin:0px;margin-left:4px;&quot;&gt;- transactionRemote: Transaction&lt;/p&gt;&lt;hr size=&quot;1&quot; style=&quot;border-style:solid;&quot;&gt;&lt;p style=&quot;margin:0px;margin-left:4px;&quot;&gt;+ SuaGiaoDichCommand(&lt;/p&gt;&lt;p style=&quot;margin:0px;margin-left:4px;&quot;&gt;&lt;span style=&quot;background-color: initial;&quot;&gt;Transaction transactionRemote&lt;/span&gt;&lt;span style=&quot;background-color: initial;&quot;&gt;)&lt;/span&gt;&lt;/p&gt;&lt;p style=&quot;margin:0px;margin-left:4px;&quot;&gt;+ execute(): void&amp;nbsp;&lt;/p&gt;" style="verticalAlign=top;align=left;overflow=fill;html=1;whiteSpace=wrap;" parent="1" vertex="1">
          <mxGeometry x="-572.5" y="2740" width="190" height="110" as="geometry" />
        </mxCell>
        <mxCell id="LsLJk3upz9a3kAg0ibDR-112" value="&lt;p style=&quot;margin:0px;margin-top:4px;text-align:center;&quot;&gt;&lt;b&gt;TrungBinhThanhTienGDDatCommand&lt;/b&gt;&lt;/p&gt;&lt;hr size=&quot;1&quot; style=&quot;border-style:solid;&quot;&gt;&lt;br&gt;&lt;hr size=&quot;1&quot; style=&quot;border-style:solid;&quot;&gt;&lt;p style=&quot;margin:0px;margin-left:4px;&quot;&gt;+ TrungBinhThanhTienGDDatCommand(&lt;/p&gt;&lt;p style=&quot;margin:0px;margin-left:4px;&quot;&gt;&lt;span style=&quot;background-color: initial;&quot;&gt;Transaction transactionRemote&lt;/span&gt;&lt;span style=&quot;background-color: initial;&quot;&gt;)&lt;/span&gt;&lt;/p&gt;&lt;p style=&quot;margin:0px;margin-left:4px;&quot;&gt;+ execute(): void&amp;nbsp;&lt;/p&gt;" style="verticalAlign=top;align=left;overflow=fill;html=1;whiteSpace=wrap;" parent="1" vertex="1">
          <mxGeometry x="-825" y="2170" width="252.5" height="110" as="geometry" />
        </mxCell>
        <mxCell id="LsLJk3upz9a3kAg0ibDR-113" value="&lt;p style=&quot;text-align: left; margin: 4px 0px 0px;&quot;&gt;&lt;span style=&quot;white-space: pre;&quot;&gt;&#x9;&lt;/span&gt;&lt;b&gt;TimKiemGiaoDichCommand&lt;/b&gt;&lt;/p&gt;&lt;hr size=&quot;1&quot; style=&quot;border-style:solid;&quot;&gt;&lt;p style=&quot;margin:0px;margin-left:4px;&quot;&gt;- maGiaoDich: int&lt;/p&gt;&lt;hr size=&quot;1&quot; style=&quot;border-style:solid;&quot;&gt;&lt;p style=&quot;margin:0px;margin-left:4px;&quot;&gt;+ TimKiemGiaoDichCommand(&lt;/p&gt;&lt;p style=&quot;margin:0px;margin-left:4px;&quot;&gt;&lt;span style=&quot;background-color: initial;&quot;&gt;Transaction transactionRemote, int maGiaoDich&lt;/span&gt;&lt;span style=&quot;background-color: initial;&quot;&gt;)&lt;/span&gt;&lt;/p&gt;&lt;p style=&quot;margin:0px;margin-left:4px;&quot;&gt;+ execute(): void&amp;nbsp;&lt;/p&gt;" style="verticalAlign=top;align=left;overflow=fill;html=1;whiteSpace=wrap;" parent="1" vertex="1">
          <mxGeometry x="-815" y="2292.5" width="212.5" height="125" as="geometry" />
        </mxCell>
        <mxCell id="LsLJk3upz9a3kAg0ibDR-114" value="&lt;p style=&quot;margin:0px;margin-top:4px;text-align:center;&quot;&gt;&lt;b&gt;LayGiaoDichThangCommand&amp;nbsp;&lt;/b&gt;&lt;/p&gt;&lt;hr size=&quot;1&quot; style=&quot;border-style:solid;&quot;&gt;&lt;p style=&quot;margin:0px;margin-left:4px;&quot;&gt;&lt;span style=&quot;background-color: initial;&quot;&gt;+ month: String&amp;nbsp;&lt;/span&gt;&lt;br&gt;&lt;/p&gt;&lt;hr size=&quot;1&quot; style=&quot;border-style:solid;&quot;&gt;&lt;p style=&quot;margin:0px;margin-left:4px;&quot;&gt;+ Lay&lt;span style=&quot;text-align: center;&quot;&gt;GiaoDichThangCommand&lt;/span&gt;&lt;span style=&quot;background-color: initial;&quot;&gt;(&lt;/span&gt;&lt;/p&gt;&lt;p style=&quot;margin:0px;margin-left:4px;&quot;&gt;&lt;span style=&quot;background-color: initial;&quot;&gt;Transaction transactionRemote, String month&lt;/span&gt;&lt;span style=&quot;background-color: initial;&quot;&gt;)&lt;/span&gt;&lt;/p&gt;&lt;p style=&quot;margin:0px;margin-left:4px;&quot;&gt;+ execute(): void&amp;nbsp;&lt;/p&gt;" style="verticalAlign=top;align=left;overflow=fill;html=1;whiteSpace=wrap;" parent="1" vertex="1">
          <mxGeometry x="-832.5" y="2430" width="232.5" height="120" as="geometry" />
        </mxCell>
        <mxCell id="LsLJk3upz9a3kAg0ibDR-115" value="Extends" style="endArrow=block;endSize=16;endFill=0;html=1;rounded=0;exitX=1;exitY=0;exitDx=0;exitDy=0;entryX=0;entryY=1;entryDx=0;entryDy=0;" parent="1" source="LsLJk3upz9a3kAg0ibDR-111" target="LsLJk3upz9a3kAg0ibDR-108" edge="1">
          <mxGeometry width="160" relative="1" as="geometry">
            <mxPoint x="-370" y="2615" as="sourcePoint" />
            <mxPoint x="-450" y="2550" as="targetPoint" />
          </mxGeometry>
        </mxCell>
        <mxCell id="LsLJk3upz9a3kAg0ibDR-116" value="Extends" style="endArrow=block;endSize=16;endFill=0;html=1;rounded=0;exitX=1.001;exitY=0.385;exitDx=0;exitDy=0;entryX=-0.017;entryY=0.832;entryDx=0;entryDy=0;exitPerimeter=0;entryPerimeter=0;" parent="1" source="LsLJk3upz9a3kAg0ibDR-109" target="LsLJk3upz9a3kAg0ibDR-108" edge="1">
          <mxGeometry width="160" relative="1" as="geometry">
            <mxPoint x="-460" y="2690" as="sourcePoint" />
            <mxPoint x="-381" y="2644" as="targetPoint" />
          </mxGeometry>
        </mxCell>
        <mxCell id="LsLJk3upz9a3kAg0ibDR-117" value="Extends" style="endArrow=block;endSize=16;endFill=0;html=1;rounded=0;exitX=1;exitY=0.5;exitDx=0;exitDy=0;entryX=-0.017;entryY=0.651;entryDx=0;entryDy=0;entryPerimeter=0;" parent="1" source="LsLJk3upz9a3kAg0ibDR-110" target="LsLJk3upz9a3kAg0ibDR-108" edge="1">
          <mxGeometry width="160" relative="1" as="geometry">
            <mxPoint x="-525" y="2570" as="sourcePoint" />
            <mxPoint x="-259" y="2591" as="targetPoint" />
          </mxGeometry>
        </mxCell>
        <mxCell id="LsLJk3upz9a3kAg0ibDR-118" value="Extends" style="endArrow=block;endSize=16;endFill=0;html=1;rounded=0;exitX=1;exitY=1;exitDx=0;exitDy=0;entryX=0;entryY=0.5;entryDx=0;entryDy=0;" parent="1" source="LsLJk3upz9a3kAg0ibDR-114" target="LsLJk3upz9a3kAg0ibDR-108" edge="1">
          <mxGeometry width="160" relative="1" as="geometry">
            <mxPoint x="-440" y="2480" as="sourcePoint" />
            <mxPoint x="-194" y="2586" as="targetPoint" />
          </mxGeometry>
        </mxCell>
        <mxCell id="LsLJk3upz9a3kAg0ibDR-119" value="Extends" style="endArrow=block;endSize=16;endFill=0;html=1;rounded=0;exitX=1;exitY=1;exitDx=0;exitDy=0;entryX=0;entryY=0.25;entryDx=0;entryDy=0;" parent="1" source="LsLJk3upz9a3kAg0ibDR-113" target="LsLJk3upz9a3kAg0ibDR-108" edge="1">
          <mxGeometry width="160" relative="1" as="geometry">
            <mxPoint x="-440" y="2410" as="sourcePoint" />
            <mxPoint x="-263" y="2590" as="targetPoint" />
          </mxGeometry>
        </mxCell>
        <mxCell id="LsLJk3upz9a3kAg0ibDR-120" value="Extends" style="endArrow=block;endSize=16;endFill=0;html=1;rounded=0;exitX=1;exitY=1;exitDx=0;exitDy=0;entryX=0;entryY=0;entryDx=0;entryDy=0;" parent="1" source="LsLJk3upz9a3kAg0ibDR-112" target="LsLJk3upz9a3kAg0ibDR-108" edge="1">
          <mxGeometry width="160" relative="1" as="geometry">
            <mxPoint x="-430" y="2390" as="sourcePoint" />
            <mxPoint x="-250" y="2530" as="targetPoint" />
          </mxGeometry>
        </mxCell>
        <mxCell id="LsLJk3upz9a3kAg0ibDR-121" value="&lt;p style=&quot;text-align: left; margin: 4px 0px 0px;&quot;&gt;&lt;span style=&quot;white-space: pre;&quot;&gt;&#x9;&lt;/span&gt;&lt;b&gt;TinhTongSLTungLoaiCommand&lt;/b&gt;&lt;/p&gt;&lt;hr size=&quot;1&quot; style=&quot;border-style:solid;&quot;&gt;&lt;p style=&quot;margin:0px;margin-left:4px;&quot;&gt;- String loaigd&lt;/p&gt;&lt;hr size=&quot;1&quot; style=&quot;border-style:solid;&quot;&gt;&lt;p style=&quot;margin:0px;margin-left:4px;&quot;&gt;+ TinhTongSLTungLoaiCommand(&lt;/p&gt;&lt;p style=&quot;margin:0px;margin-left:4px;&quot;&gt;&lt;span style=&quot;background-color: initial;&quot;&gt;Transaction transactionRemote, String loaigd&lt;/span&gt;&lt;span style=&quot;background-color: initial;&quot;&gt;)&lt;/span&gt;&lt;/p&gt;&lt;p style=&quot;margin:0px;margin-left:4px;&quot;&gt;+ execute(): void&amp;nbsp;&lt;/p&gt;" style="verticalAlign=top;align=left;overflow=fill;html=1;whiteSpace=wrap;" parent="1" vertex="1">
          <mxGeometry x="-790" y="2030" width="225" height="130" as="geometry" />
        </mxCell>
        <mxCell id="LsLJk3upz9a3kAg0ibDR-122" value="Extends" style="endArrow=block;endSize=16;endFill=0;html=1;rounded=0;exitX=1;exitY=1;exitDx=0;exitDy=0;entryX=0.101;entryY=0;entryDx=0;entryDy=0;entryPerimeter=0;" parent="1" source="LsLJk3upz9a3kAg0ibDR-121" target="LsLJk3upz9a3kAg0ibDR-108" edge="1">
          <mxGeometry width="160" relative="1" as="geometry">
            <mxPoint x="-510" y="2270" as="sourcePoint" />
            <mxPoint x="-220" y="2547" as="targetPoint" />
          </mxGeometry>
        </mxCell>
        <mxCell id="LsLJk3upz9a3kAg0ibDR-123" value="" style="endArrow=open;endFill=1;endSize=12;html=1;rounded=0;exitX=0.65;exitY=0.994;exitDx=0;exitDy=0;entryX=0.055;entryY=-0.011;entryDx=0;entryDy=0;exitPerimeter=0;entryPerimeter=0;" parent="1" source="LsLJk3upz9a3kAg0ibDR-109" target="LsLJk3upz9a3kAg0ibDR-133" edge="1">
          <mxGeometry width="160" relative="1" as="geometry">
            <mxPoint x="-585" y="2740" as="sourcePoint" />
            <mxPoint x="-460" y="3070" as="targetPoint" />
          </mxGeometry>
        </mxCell>
        <mxCell id="LsLJk3upz9a3kAg0ibDR-124" value="" style="endArrow=open;endFill=1;endSize=12;html=1;rounded=0;exitX=0.75;exitY=1;exitDx=0;exitDy=0;entryX=0.25;entryY=0;entryDx=0;entryDy=0;" parent="1" source="LsLJk3upz9a3kAg0ibDR-111" target="LsLJk3upz9a3kAg0ibDR-133" edge="1">
          <mxGeometry width="160" relative="1" as="geometry">
            <mxPoint x="-353.9399999999996" y="2831.65" as="sourcePoint" />
            <mxPoint x="-268.0300000000002" y="3072.2500000000005" as="targetPoint" />
          </mxGeometry>
        </mxCell>
        <mxCell id="LsLJk3upz9a3kAg0ibDR-125" value="" style="endArrow=open;endFill=1;endSize=12;html=1;rounded=0;entryX=0.204;entryY=-0.004;entryDx=0;entryDy=0;exitX=0.826;exitY=1.002;exitDx=0;exitDy=0;exitPerimeter=0;entryPerimeter=0;" parent="1" source="LsLJk3upz9a3kAg0ibDR-108" target="LsLJk3upz9a3kAg0ibDR-86" edge="1">
          <mxGeometry width="160" relative="1" as="geometry">
            <mxPoint x="-97.5" y="2640" as="sourcePoint" />
            <mxPoint x="-37" y="2900" as="targetPoint" />
          </mxGeometry>
        </mxCell>
        <mxCell id="LsLJk3upz9a3kAg0ibDR-126" value="" style="endArrow=open;endFill=1;endSize=12;html=1;rounded=0;exitX=0.192;exitY=0.997;exitDx=0;exitDy=0;entryX=0.75;entryY=0;entryDx=0;entryDy=0;exitPerimeter=0;" parent="1" source="LsLJk3upz9a3kAg0ibDR-106" target="LsLJk3upz9a3kAg0ibDR-86" edge="1">
          <mxGeometry width="160" relative="1" as="geometry">
            <mxPoint x="280" y="2600" as="sourcePoint" />
            <mxPoint x="78" y="2897" as="targetPoint" />
          </mxGeometry>
        </mxCell>
        <mxCell id="LsLJk3upz9a3kAg0ibDR-128" value="" style="endArrow=block;dashed=1;endFill=0;endSize=12;html=1;rounded=0;exitX=0.7;exitY=1.005;exitDx=0;exitDy=0;entryX=0.315;entryY=0.013;entryDx=0;entryDy=0;entryPerimeter=0;exitPerimeter=0;" parent="1" source="LsLJk3upz9a3kAg0ibDR-106" target="LsLJk3upz9a3kAg0ibDR-89" edge="1">
          <mxGeometry width="160" relative="1" as="geometry">
            <mxPoint x="329.38" y="2778" as="sourcePoint" />
            <mxPoint x="330.38" y="2660" as="targetPoint" />
          </mxGeometry>
        </mxCell>
        <mxCell id="LsLJk3upz9a3kAg0ibDR-133" value="&lt;p style=&quot;margin:0px;margin-top:4px;text-align:center;&quot;&gt;&lt;span style=&quot;font-weight: 700;&quot;&gt;Transaction&lt;/span&gt;&lt;br&gt;&lt;/p&gt;&lt;hr size=&quot;1&quot; style=&quot;border-style:solid;&quot;&gt;&lt;p style=&quot;margin:0px;margin-left:4px;&quot;&gt;- maGiaoDich: int&lt;/p&gt;&lt;div&gt;&amp;nbsp;- ngay: Date&lt;/div&gt;&lt;div&gt;&lt;span style=&quot;background-color: initial;&quot;&gt;&amp;nbsp;- donGia: double&lt;/span&gt;&lt;/div&gt;&lt;div&gt;&amp;nbsp;- dienTich:&amp;nbsp;&lt;span style=&quot;background-color: initial;&quot;&gt;double&lt;/span&gt;&lt;/div&gt;&lt;hr size=&quot;1&quot; style=&quot;border-style:solid;&quot;&gt;&lt;div&gt;&amp;nbsp;+ Transaction(int MaGiaoDich, Date ngay,&amp;nbsp; &amp;nbsp;double donGia, double dienTich )&lt;br&gt;&amp;nbsp;+ getMaGiaoDich(): int&lt;/div&gt;&lt;div&gt;&amp;nbsp;+ setMaGiaoDich(int): void&lt;/div&gt;&lt;div&gt;&lt;span style=&quot;background-color: initial;&quot;&gt;&amp;nbsp;+ getNgay(): DateTime&lt;/span&gt;&lt;/div&gt;&lt;div&gt;&lt;span style=&quot;background-color: initial;&quot;&gt;&amp;nbsp;+ setNgay(DateTime): void&lt;/span&gt;&lt;/div&gt;&lt;div&gt;&lt;span style=&quot;background-color: initial;&quot;&gt;&amp;nbsp;+ getDonGia():&amp;nbsp;&lt;/span&gt;&lt;span style=&quot;background-color: initial;&quot;&gt;double&lt;/span&gt;&lt;/div&gt;&lt;div&gt;&amp;nbsp;+ setDonGia(&lt;span style=&quot;background-color: initial;&quot;&gt;double&lt;/span&gt;&lt;span style=&quot;background-color: initial;&quot;&gt;): void&lt;/span&gt;&lt;/div&gt;&lt;div&gt;&lt;span style=&quot;background-color: initial;&quot;&gt;&amp;nbsp;+ getDienTich():&amp;nbsp;&lt;/span&gt;&lt;span style=&quot;background-color: initial;&quot;&gt;double&lt;/span&gt;&lt;/div&gt;&lt;div&gt;&lt;span style=&quot;background-color: initial;&quot;&gt;&amp;nbsp;+ setDienTich(&lt;/span&gt;&lt;span style=&quot;background-color: initial;&quot;&gt;double&lt;/span&gt;&lt;span style=&quot;background-color: initial;&quot;&gt;): void&lt;/span&gt;&lt;/div&gt;&lt;div&gt;&lt;span style=&quot;background-color: initial;&quot;&gt;&amp;nbsp;+ thanhTien():&amp;nbsp;&lt;/span&gt;&lt;span style=&quot;background-color: initial;&quot;&gt;double&lt;/span&gt;&lt;/div&gt;" style="verticalAlign=top;align=left;overflow=fill;html=1;whiteSpace=wrap;" parent="1" vertex="1">
          <mxGeometry x="-410" y="2990" width="240" height="270" as="geometry" />
        </mxCell>
        <mxCell id="LsLJk3upz9a3kAg0ibDR-142" value="&lt;p style=&quot;margin:0px;margin-top:4px;text-align:center;&quot;&gt;&lt;span style=&quot;font-weight: 700;&quot;&gt;LandTransactions&lt;/span&gt;&lt;br&gt;&lt;/p&gt;&lt;hr size=&quot;1&quot; style=&quot;border-style:solid;&quot;&gt;&lt;p style=&quot;margin:0px;margin-left:4px;&quot;&gt;- loaiDat: String&lt;br&gt;&lt;/p&gt;&lt;hr size=&quot;1&quot; style=&quot;border-style:solid;&quot;&gt;&lt;p style=&quot;margin:0px;margin-left:4px;&quot;&gt;+ LandTransactions(int MaGiaoDich, Date ngay,&amp;nbsp; &amp;nbsp;double donGia, double dienTich, String loaiDat)&lt;br&gt;+ getLoaiDat(): String&lt;/p&gt;&lt;div&gt;&amp;nbsp;+ setLoaiDat(String): void&lt;br&gt;&amp;nbsp;+ thanhTien:&amp;nbsp;&lt;span style=&quot;background-color: initial;&quot;&gt;double&lt;/span&gt;&lt;/div&gt;" style="verticalAlign=top;align=left;overflow=fill;html=1;whiteSpace=wrap;" parent="1" vertex="1">
          <mxGeometry x="-680" y="3210" width="190" height="170" as="geometry" />
        </mxCell>
        <mxCell id="LsLJk3upz9a3kAg0ibDR-143" value="&lt;p style=&quot;margin:0px;margin-top:4px;text-align:center;&quot;&gt;&lt;span style=&quot;font-weight: 700;&quot;&gt;HouseTransactions&lt;/span&gt;&lt;br&gt;&lt;/p&gt;&lt;hr size=&quot;1&quot; style=&quot;border-style:solid;&quot;&gt;&lt;p style=&quot;margin:0px;margin-left:4px;&quot;&gt;- loaiNha: String&lt;/p&gt;&lt;div&gt;&amp;nbsp;- diaChi: String&lt;/div&gt;&lt;hr size=&quot;1&quot; style=&quot;border-style:solid;&quot;&gt;&lt;p style=&quot;margin:0px;margin-left:4px;&quot;&gt;+ HouseTransactions( int MaGiaoDich, Date ngay,&amp;nbsp; &amp;nbsp;double donGia, double dienTich, String loaiNha, String diaChi)&lt;br&gt;+ getLoaiNha(): String&lt;br&gt;+ setLoaiNha(String): void&lt;/p&gt;&lt;div&gt;&amp;nbsp;+ getDiaChi(): String&lt;/div&gt;&lt;div&gt;&amp;nbsp;+ setDiaChi(String): void&lt;br&gt;&amp;nbsp;+ thanhTien:&amp;nbsp;&lt;span style=&quot;background-color: initial;&quot;&gt;double&lt;/span&gt;&lt;/div&gt;" style="verticalAlign=top;align=left;overflow=fill;html=1;whiteSpace=wrap;" parent="1" vertex="1">
          <mxGeometry x="-700" y="2990" width="230" height="190" as="geometry" />
        </mxCell>
        <mxCell id="LsLJk3upz9a3kAg0ibDR-144" value="Extends" style="endArrow=block;endSize=16;endFill=0;html=1;rounded=0;exitX=1.002;exitY=0.288;exitDx=0;exitDy=0;entryX=0.005;entryY=0.367;entryDx=0;entryDy=0;entryPerimeter=0;exitPerimeter=0;" parent="1" source="LsLJk3upz9a3kAg0ibDR-143" target="LsLJk3upz9a3kAg0ibDR-133" edge="1">
          <mxGeometry x="0.0089" width="160" relative="1" as="geometry">
            <mxPoint x="-532.5" y="3195" as="sourcePoint" />
            <mxPoint x="-492.5" y="3145" as="targetPoint" />
            <mxPoint as="offset" />
          </mxGeometry>
        </mxCell>
        <mxCell id="LsLJk3upz9a3kAg0ibDR-145" value="Extends" style="endArrow=block;endSize=16;endFill=0;html=1;rounded=0;exitX=1;exitY=0.25;exitDx=0;exitDy=0;entryX=0;entryY=0.5;entryDx=0;entryDy=0;" parent="1" source="LsLJk3upz9a3kAg0ibDR-142" target="LsLJk3upz9a3kAg0ibDR-133" edge="1">
          <mxGeometry x="0.0089" width="160" relative="1" as="geometry">
            <mxPoint x="-550" y="3238" as="sourcePoint" />
            <mxPoint x="-469" y="3230" as="targetPoint" />
            <mxPoint as="offset" />
          </mxGeometry>
        </mxCell>
        <mxCell id="LsLJk3upz9a3kAg0ibDR-146" value="&lt;font style=&quot;font-size: 24px;&quot;&gt;&lt;b&gt;Domain layer&lt;/b&gt;&lt;/font&gt;" style="text;strokeColor=none;align=center;fillColor=none;html=1;verticalAlign=middle;whiteSpace=wrap;rounded=0;" parent="1" vertex="1">
          <mxGeometry x="-700" y="2925" width="172.5" height="50" as="geometry" />
        </mxCell>
        <mxCell id="LsLJk3upz9a3kAg0ibDR-147" value="&lt;b&gt;&lt;font style=&quot;font-size: 24px;&quot;&gt;Persistence layer&lt;/font&gt;&lt;/b&gt;" style="text;strokeColor=none;align=center;fillColor=none;html=1;verticalAlign=middle;whiteSpace=wrap;rounded=0;" parent="1" vertex="1">
          <mxGeometry x="-380" y="3530" width="240" height="60" as="geometry" />
        </mxCell>
        <mxCell id="LsLJk3upz9a3kAg0ibDR-148" value="&lt;b&gt;&lt;font style=&quot;font-size: 24px;&quot;&gt;Persentation layer&lt;/font&gt;&lt;/b&gt;" style="text;strokeColor=none;align=center;fillColor=none;html=1;verticalAlign=middle;whiteSpace=wrap;rounded=0;" parent="1" vertex="1">
          <mxGeometry x="-775" y="1900" width="250" height="30" as="geometry" />
        </mxCell>
        <mxCell id="LsLJk3upz9a3kAg0ibDR-150" value="" style="endArrow=open;endFill=1;endSize=12;html=1;rounded=0;exitX=0;exitY=0.5;exitDx=0;exitDy=0;entryX=1;entryY=0.75;entryDx=0;entryDy=0;" parent="1" source="LsLJk3upz9a3kAg0ibDR-106" target="LsLJk3upz9a3kAg0ibDR-107" edge="1">
          <mxGeometry width="160" relative="1" as="geometry">
            <mxPoint x="276" y="2609" as="sourcePoint" />
            <mxPoint x="98" y="2910" as="targetPoint" />
          </mxGeometry>
        </mxCell>
        <mxCell id="LsLJk3upz9a3kAg0ibDR-151" value="Use" style="endArrow=open;endSize=12;dashed=1;html=1;rounded=0;exitX=0.5;exitY=1;exitDx=0;exitDy=0;entryX=0.75;entryY=0;entryDx=0;entryDy=0;" parent="1" source="LsLJk3upz9a3kAg0ibDR-107" target="LsLJk3upz9a3kAg0ibDR-108" edge="1">
          <mxGeometry width="160" relative="1" as="geometry">
            <mxPoint x="-20" y="2470" as="sourcePoint" />
            <mxPoint x="140" y="2470" as="targetPoint" />
          </mxGeometry>
        </mxCell>
        <mxCell id="LsLJk3upz9a3kAg0ibDR-154" value="&lt;p style=&quot;margin:0px;margin-top:4px;text-align:center;&quot;&gt;&lt;i&gt;&amp;lt;&amp;lt;Interface&amp;gt;&amp;gt;&lt;/i&gt;&lt;br&gt;&lt;b&gt;&lt;i&gt;ActionListener&lt;/i&gt;&lt;/b&gt;&lt;/p&gt;&lt;hr size=&quot;1&quot; style=&quot;border-style:solid;&quot;&gt;&lt;p style=&quot;margin:0px;margin-left:4px;&quot;&gt;&lt;br&gt;&lt;/p&gt;&lt;hr size=&quot;1&quot; style=&quot;border-style:solid;&quot;&gt;&lt;p style=&quot;margin:0px;margin-left:4px;&quot;&gt;+ actionPerform(ActionEvent e): void&amp;nbsp;&lt;/p&gt;" style="verticalAlign=top;align=left;overflow=fill;html=1;whiteSpace=wrap;" parent="1" vertex="1">
          <mxGeometry x="-550" y="1940" width="190" height="110" as="geometry" />
        </mxCell>
        <mxCell id="LsLJk3upz9a3kAg0ibDR-155" value="" style="endArrow=block;dashed=1;endFill=0;endSize=12;html=1;rounded=0;entryX=1;entryY=1;entryDx=0;entryDy=0;exitX=0;exitY=0;exitDx=0;exitDy=0;" parent="1" source="LsLJk3upz9a3kAg0ibDR-107" target="LsLJk3upz9a3kAg0ibDR-154" edge="1">
          <mxGeometry width="160" relative="1" as="geometry">
            <mxPoint x="-310" y="2190" as="sourcePoint" />
            <mxPoint x="-150" y="2190" as="targetPoint" />
          </mxGeometry>
        </mxCell>
        <mxCell id="oA98Cy5WjD3D4BXsNROV-1" value="&lt;p style=&quot;margin:0px;margin-top:4px;text-align:center;&quot;&gt;&lt;span style=&quot;text-align: left;&quot;&gt;&lt;b&gt;JPanel&lt;/b&gt;&lt;/span&gt;&lt;br&gt;&lt;/p&gt;&lt;hr size=&quot;1&quot; style=&quot;border-style:solid;&quot;&gt;&lt;p style=&quot;margin:0px;margin-left:4px;&quot;&gt;+ field: Type&lt;/p&gt;&lt;hr size=&quot;1&quot; style=&quot;border-style:solid;&quot;&gt;&lt;p style=&quot;margin:0px;margin-left:4px;&quot;&gt;+ method(): Type&lt;/p&gt;" style="verticalAlign=top;align=left;overflow=fill;html=1;whiteSpace=wrap;" parent="1" vertex="1">
          <mxGeometry x="170" y="1620" width="110" height="80" as="geometry" />
        </mxCell>
        <mxCell id="oA98Cy5WjD3D4BXsNROV-2" value="&lt;p style=&quot;margin:0px;margin-top:4px;text-align:center;&quot;&gt;&lt;span style=&quot;text-align: left;&quot;&gt;&lt;b&gt;JMenuBar&lt;/b&gt;&lt;/span&gt;&lt;br&gt;&lt;/p&gt;&lt;hr size=&quot;1&quot; style=&quot;border-style:solid;&quot;&gt;&lt;p style=&quot;margin:0px;margin-left:4px;&quot;&gt;+ field: Type&lt;/p&gt;&lt;hr size=&quot;1&quot; style=&quot;border-style:solid;&quot;&gt;&lt;p style=&quot;margin:0px;margin-left:4px;&quot;&gt;+ method(): Type&lt;/p&gt;" style="verticalAlign=top;align=left;overflow=fill;html=1;whiteSpace=wrap;" parent="1" vertex="1">
          <mxGeometry x="575" y="1730" width="120" height="75" as="geometry" />
        </mxCell>
        <mxCell id="oA98Cy5WjD3D4BXsNROV-3" value="&lt;p style=&quot;margin:0px;margin-top:4px;text-align:center;&quot;&gt;&lt;span style=&quot;text-align: left;&quot;&gt;&lt;b&gt;JTable&lt;/b&gt;&lt;/span&gt;&lt;br&gt;&lt;/p&gt;&lt;hr size=&quot;1&quot; style=&quot;border-style:solid;&quot;&gt;&lt;p style=&quot;margin:0px;margin-left:4px;&quot;&gt;+ field: Type&lt;/p&gt;&lt;hr size=&quot;1&quot; style=&quot;border-style:solid;&quot;&gt;&lt;p style=&quot;margin:0px;margin-left:4px;&quot;&gt;+ method(): Type&lt;/p&gt;" style="verticalAlign=top;align=left;overflow=fill;html=1;whiteSpace=wrap;" parent="1" vertex="1">
          <mxGeometry x="27.5" y="1740" width="110" height="80" as="geometry" />
        </mxCell>
        <mxCell id="oA98Cy5WjD3D4BXsNROV-4" value="&lt;p style=&quot;margin:0px;margin-top:4px;text-align:center;&quot;&gt;&lt;span style=&quot;text-align: left;&quot;&gt;&lt;b&gt;JTextField&lt;/b&gt;&lt;/span&gt;&lt;br&gt;&lt;/p&gt;&lt;hr size=&quot;1&quot; style=&quot;border-style:solid;&quot;&gt;&lt;p style=&quot;margin:0px;margin-left:4px;&quot;&gt;+ field: Type&lt;/p&gt;&lt;hr size=&quot;1&quot; style=&quot;border-style:solid;&quot;&gt;&lt;p style=&quot;margin:0px;margin-left:4px;&quot;&gt;+ method(): Type&lt;/p&gt;" style="verticalAlign=top;align=left;overflow=fill;html=1;whiteSpace=wrap;" parent="1" vertex="1">
          <mxGeometry x="300" y="1630" width="120" height="80" as="geometry" />
        </mxCell>
        <mxCell id="oA98Cy5WjD3D4BXsNROV-5" value="&lt;p style=&quot;margin:0px;margin-top:4px;text-align:center;&quot;&gt;&lt;span style=&quot;text-align: left;&quot;&gt;&lt;b&gt;JComboBox&lt;/b&gt;&lt;/span&gt;&lt;br&gt;&lt;/p&gt;&lt;hr size=&quot;1&quot; style=&quot;border-style:solid;&quot;&gt;&lt;p style=&quot;margin:0px;margin-left:4px;&quot;&gt;+ field: Type&lt;/p&gt;&lt;hr size=&quot;1&quot; style=&quot;border-style:solid;&quot;&gt;&lt;p style=&quot;margin:0px;margin-left:4px;&quot;&gt;+ method(): Type&lt;/p&gt;" style="verticalAlign=top;align=left;overflow=fill;html=1;whiteSpace=wrap;" parent="1" vertex="1">
          <mxGeometry x="440" y="1710" width="110" height="80" as="geometry" />
        </mxCell>
        <mxCell id="oA98Cy5WjD3D4BXsNROV-6" value="&lt;p style=&quot;margin:0px;margin-top:4px;text-align:center;&quot;&gt;&lt;span style=&quot;text-align: left;&quot;&gt;&lt;b&gt;JMenu&lt;/b&gt;&lt;/span&gt;&lt;br&gt;&lt;/p&gt;&lt;hr size=&quot;1&quot; style=&quot;border-style:solid;&quot;&gt;&lt;p style=&quot;margin:0px;margin-left:4px;&quot;&gt;+ field: Type&lt;/p&gt;&lt;hr size=&quot;1&quot; style=&quot;border-style:solid;&quot;&gt;&lt;p style=&quot;margin:0px;margin-left:4px;&quot;&gt;+ method(): Type&lt;/p&gt;" style="verticalAlign=top;align=left;overflow=fill;html=1;whiteSpace=wrap;" parent="1" vertex="1">
          <mxGeometry x="620" y="1840" width="120" height="80" as="geometry" />
        </mxCell>
        <mxCell id="oA98Cy5WjD3D4BXsNROV-7" value="&lt;p style=&quot;margin:0px;margin-top:4px;text-align:center;&quot;&gt;&lt;span style=&quot;text-align: left;&quot;&gt;&lt;b&gt;JFrame&lt;/b&gt;&lt;/span&gt;&lt;br&gt;&lt;/p&gt;&lt;hr size=&quot;1&quot; style=&quot;border-style:solid;&quot;&gt;&lt;p style=&quot;margin:0px;margin-left:4px;&quot;&gt;+ field: Type&lt;/p&gt;&lt;hr size=&quot;1&quot; style=&quot;border-style:solid;&quot;&gt;&lt;p style=&quot;margin:0px;margin-left:4px;&quot;&gt;+ method(): Type&lt;/p&gt;" style="verticalAlign=top;align=left;overflow=fill;html=1;whiteSpace=wrap;" parent="1" vertex="1">
          <mxGeometry x="-30" y="1840" width="110" height="80" as="geometry" />
        </mxCell>
        <mxCell id="oA98Cy5WjD3D4BXsNROV-8" value="" style="endArrow=diamondThin;endFill=1;endSize=24;html=1;rounded=0;entryX=0.75;entryY=0;entryDx=0;entryDy=0;exitX=0;exitY=1;exitDx=0;exitDy=0;" parent="1" source="oA98Cy5WjD3D4BXsNROV-6" target="LsLJk3upz9a3kAg0ibDR-106" edge="1">
          <mxGeometry width="160" relative="1" as="geometry">
            <mxPoint x="140" y="2090" as="sourcePoint" />
            <mxPoint x="300" y="2090" as="targetPoint" />
          </mxGeometry>
        </mxCell>
        <mxCell id="oA98Cy5WjD3D4BXsNROV-9" value="" style="endArrow=diamondThin;endFill=1;endSize=24;html=1;rounded=0;entryX=0.693;entryY=-0.003;entryDx=0;entryDy=0;exitX=0;exitY=1;exitDx=0;exitDy=0;entryPerimeter=0;" parent="1" source="oA98Cy5WjD3D4BXsNROV-2" target="LsLJk3upz9a3kAg0ibDR-106" edge="1">
          <mxGeometry width="160" relative="1" as="geometry">
            <mxPoint x="440" y="2150" as="sourcePoint" />
            <mxPoint x="380" y="2260" as="targetPoint" />
          </mxGeometry>
        </mxCell>
        <mxCell id="oA98Cy5WjD3D4BXsNROV-10" value="" style="endArrow=diamondThin;endFill=1;endSize=24;html=1;rounded=0;entryX=0.605;entryY=-0.001;entryDx=0;entryDy=0;exitX=0.25;exitY=1;exitDx=0;exitDy=0;entryPerimeter=0;" parent="1" source="oA98Cy5WjD3D4BXsNROV-5" target="LsLJk3upz9a3kAg0ibDR-106" edge="1">
          <mxGeometry width="160" relative="1" as="geometry">
            <mxPoint x="420" y="2050" as="sourcePoint" />
            <mxPoint x="362" y="2259" as="targetPoint" />
          </mxGeometry>
        </mxCell>
        <mxCell id="oA98Cy5WjD3D4BXsNROV-11" value="" style="endArrow=diamondThin;endFill=1;endSize=24;html=1;rounded=0;entryX=0.5;entryY=0;entryDx=0;entryDy=0;exitX=0.25;exitY=1;exitDx=0;exitDy=0;" parent="1" source="oA98Cy5WjD3D4BXsNROV-4" target="LsLJk3upz9a3kAg0ibDR-106" edge="1">
          <mxGeometry width="160" relative="1" as="geometry">
            <mxPoint x="330" y="1950" as="sourcePoint" />
            <mxPoint x="334" y="2260" as="targetPoint" />
          </mxGeometry>
        </mxCell>
        <mxCell id="oA98Cy5WjD3D4BXsNROV-12" value="" style="endArrow=diamondThin;endFill=1;endSize=24;html=1;rounded=0;entryX=0.386;entryY=0;entryDx=0;entryDy=0;exitX=0.75;exitY=1;exitDx=0;exitDy=0;entryPerimeter=0;" parent="1" source="oA98Cy5WjD3D4BXsNROV-1" target="LsLJk3upz9a3kAg0ibDR-106" edge="1">
          <mxGeometry width="160" relative="1" as="geometry">
            <mxPoint x="240" y="1970" as="sourcePoint" />
            <mxPoint x="300" y="2260" as="targetPoint" />
          </mxGeometry>
        </mxCell>
        <mxCell id="oA98Cy5WjD3D4BXsNROV-13" value="" style="endArrow=diamondThin;endFill=1;endSize=24;html=1;rounded=0;entryX=0.284;entryY=0.004;entryDx=0;entryDy=0;exitX=1;exitY=1;exitDx=0;exitDy=0;entryPerimeter=0;" parent="1" source="oA98Cy5WjD3D4BXsNROV-3" target="LsLJk3upz9a3kAg0ibDR-106" edge="1">
          <mxGeometry width="160" relative="1" as="geometry">
            <mxPoint x="100" y="2000" as="sourcePoint" />
            <mxPoint x="264" y="2260" as="targetPoint" />
          </mxGeometry>
        </mxCell>
        <mxCell id="oA98Cy5WjD3D4BXsNROV-14" value="Extends" style="endArrow=block;endSize=16;endFill=0;html=1;rounded=0;exitX=0.116;exitY=0.002;exitDx=0;exitDy=0;entryX=0.75;entryY=1;entryDx=0;entryDy=0;exitPerimeter=0;" parent="1" source="LsLJk3upz9a3kAg0ibDR-106" target="oA98Cy5WjD3D4BXsNROV-7" edge="1">
          <mxGeometry x="0.0089" width="160" relative="1" as="geometry">
            <mxPoint x="90" y="2210" as="sourcePoint" />
            <mxPoint x="130" y="2160" as="targetPoint" />
            <mxPoint as="offset" />
          </mxGeometry>
        </mxCell>
        <mxCell id="LCaixWzIzYpfq2BS2yoK-1" value="&lt;p style=&quot;text-align: left; margin: 4px 0px 0px;&quot;&gt;&lt;b&gt;&amp;nbsp; &amp;nbsp; SimpleDateFormat&lt;br&gt;&lt;/b&gt;&lt;/p&gt;&lt;hr size=&quot;1&quot; style=&quot;border-style:solid;&quot;&gt;&lt;p style=&quot;margin:0px;margin-left:4px;&quot;&gt;+ field: Type&lt;/p&gt;&lt;hr size=&quot;1&quot; style=&quot;border-style:solid;&quot;&gt;&lt;p style=&quot;margin:0px;margin-left:4px;&quot;&gt;+ method(): Type&lt;/p&gt;" style="verticalAlign=top;align=left;overflow=fill;html=1;whiteSpace=wrap;" parent="1" vertex="1">
          <mxGeometry x="15" y="1640" width="135" height="80" as="geometry" />
        </mxCell>
        <mxCell id="LCaixWzIzYpfq2BS2yoK-2" value="" style="endArrow=diamondThin;endFill=1;endSize=24;html=1;rounded=0;entryX=0.329;entryY=0.006;entryDx=0;entryDy=0;exitX=1;exitY=1;exitDx=0;exitDy=0;entryPerimeter=0;" parent="1" source="LCaixWzIzYpfq2BS2yoK-1" target="LsLJk3upz9a3kAg0ibDR-106" edge="1">
          <mxGeometry width="160" relative="1" as="geometry">
            <mxPoint x="10" y="2070" as="sourcePoint" />
            <mxPoint x="231" y="2261" as="targetPoint" />
          </mxGeometry>
        </mxCell>
        <mxCell id="LCaixWzIzYpfq2BS2yoK-3" value="" style="endArrow=open;endFill=1;endSize=12;html=1;rounded=0;entryX=0.5;entryY=0;entryDx=0;entryDy=0;exitX=0.75;exitY=1;exitDx=0;exitDy=0;" parent="1" source="LsLJk3upz9a3kAg0ibDR-107" target="LsLJk3upz9a3kAg0ibDR-86" edge="1">
          <mxGeometry width="160" relative="1" as="geometry">
            <mxPoint x="-183" y="2630" as="sourcePoint" />
            <mxPoint x="-29" y="2899" as="targetPoint" />
          </mxGeometry>
        </mxCell>
        <mxCell id="LCaixWzIzYpfq2BS2yoK-5" value="" style="endArrow=open;endFill=1;endSize=12;html=1;rounded=0;entryX=-0.007;entryY=0.692;entryDx=0;entryDy=0;exitX=1;exitY=1;exitDx=0;exitDy=0;entryPerimeter=0;" parent="1" source="LsLJk3upz9a3kAg0ibDR-107" target="LsLJk3upz9a3kAg0ibDR-106" edge="1">
          <mxGeometry width="160" relative="1" as="geometry">
            <mxPoint x="-76" y="2345" as="sourcePoint" />
            <mxPoint x="50" y="2900" as="targetPoint" />
          </mxGeometry>
        </mxCell>
        <mxCell id="YxnlTQ51m1gPm-wVdrQx-1" value="" style="endArrow=diamondThin;endFill=0;endSize=24;html=1;rounded=0;exitX=1;exitY=0.5;exitDx=0;exitDy=0;entryX=0;entryY=0.5;entryDx=0;entryDy=0;" edge="1" parent="1" source="LsLJk3upz9a3kAg0ibDR-45" target="LsLJk3upz9a3kAg0ibDR-44">
          <mxGeometry width="160" relative="1" as="geometry">
            <mxPoint x="-270" y="3620" as="sourcePoint" />
            <mxPoint x="-110" y="3620" as="targetPoint" />
          </mxGeometry>
        </mxCell>
      </root>
    </mxGraphModel>
  </diagram>
</mxfile>
